<svg viewBox="0 0 336.30 293.20" width="336.30mm" height="293.20mm" stroke-width="0.1" xmlns="http://www.w3.org/2000/svg">
<g fill="none" stroke="black">
<path d="M 96.97,64.07 l -5.48,9.49 l 3.46,2.00 l -2.55,4.42 l -3.46,-2.00 l -5.48,9.49 a -16.04 -16.04 60.00 0 1 -13.89 8.02 h -10.96 v 4.00 h -5.10 v -4.00 h -10.96 a -16.04 -16.04 60.00 0 1 -13.89 -8.02 l -5.48,-9.49 l -3.46,2.00 l -2.55,-4.42 l 3.46,-2.00 l -5.48,-9.49 a -16.04 -16.04 60.00 0 1 -0.00 -16.04 l 5.48,-9.49 l -3.46,-2.00 l 2.55,-4.42 l 3.46,2.00 l 5.48,-9.49 a -16.04 -16.04 60.00 0 1 13.89 -8.02 h 10.96 v -4.00 h 5.10 v 4.00 h 10.96 a -16.04 -16.04 60.00 0 1 13.89 8.02 l 13.51,23.40 a -16.04 -16.04 60.00 0 1 0.00 16.04"/>
<path d="M 209.07,64.07 l -5.48,9.49 l 3.46,2.00 l -2.55,4.42 l -3.46,-2.00 l -5.48,9.49 a -16.04 -16.04 60.00 0 1 -13.89 8.02 h -10.96 v 4.00 h -5.10 v -4.00 h -10.96 a -16.04 -16.04 60.00 0 1 -13.89 -8.02 l -5.48,-9.49 l -3.46,2.00 l -2.55,-4.42 l 3.46,-2.00 l -5.48,-9.49 a -16.04 -16.04 60.00 0 1 0.00 -16.04 l 5.48,-9.49 l -3.46,-2.00 l 2.55,-4.42 l 3.46,2.00 l 5.48,-9.49 a -16.04 -16.04 60.00 0 1 13.89 -8.02 h 10.96 v -4.00 h 5.10 v 4.00 h 10.96 a -16.04 -16.04 60.00 0 1 13.89 8.02 l 13.51,23.40 a -16.04 -16.04 60.00 0 1 0.00 16.04"/>
<path d="M 109.60,168.15 l -26.77,46.38 h -53.55 l -26.78,-46.38 l 26.77,-46.38 h 53.55 l 26.78,46.38"/>
<path d="M 221.70,168.15 l -26.77,46.38 h -53.55 l -26.78,-46.38 l 26.77,-46.38 h 53.55 l 26.78,46.38"/>
<path d="M 209.70,168.15 l -20.77,35.98 h -41.55 l -20.78,-35.98 l 20.77,-35.98 h 41.55 l 20.78,35.98"/>
<path d="M 333.80,168.15 l -26.77,46.38 h -53.55 l -26.78,-46.38 l 26.77,-46.38 h 53.55 l 26.78,46.38"/>
<path d="M 4.16,228.20 h 14.77 v -4.00 h 16.00 v 4.00 h 7.27 v -4.00 h 5.10 v 4.00 h 4.90 v -4.00 h 5.10 v 4.00 h 7.27 v -4.00 h 16.00 v 4.00 h 7.27 v -4.00 h 5.10 v 4.00 h 4.90 v -4.00 h 5.10 v 4.00 h 7.27 v -4.00 h 16.00 v 4.00 h 7.27 v -4.00 h 5.10 v 4.00 h 4.90 v -4.00 h 5.10 v 4.00 h 7.27 v -4.00 h 16.00 v 4.00 h 7.27 v -4.00 h 5.10 v 4.00 h 4.90 v -4.00 h 5.10 v 4.00 h 7.27 v -4.00 h 16.00 v 4.00 h 7.27 v -4.00 h 5.10 v 4.00 h 4.90 v -4.00 h 5.10 v 4.00 h 7.27 v -4.00 h 16.00 v 4.00 h 14.77 v 10.45 a 0.80 0.80 135.00 0 0 1.37 0.57 l 2.50,-2.50 a -0.80 -0.80 135.00 0 1 1.37 0.57 v 9.90 a -0.80 -0.80 135.00 0 1 -1.37 0.57 l -2.50,-2.50 a 0.80 0.80 135.00 0 0 -1.37 0.57 v 7.84 a 0.80 0.80 135.00 0 0 1.37 0.57 l 2.50,-2.50 a -0.80 -0.80 135.00 0 1 1.37 0.57 v 9.90 a -0.80 -0.80 135.00 0 1 -1.37 0.57 l -2.50,-2.50 a 0.80 0.80 135.00 0 0 -1.37 0.57 v 7.84 a 0.80 0.80 135.00 0 0 1.37 0.57 l 2.50,-2.50 a -0.80 -0.80 135.00 0 1 1.37 0.57 v 9.90 a -0.80 -0.80 135.00 0 1 -1.37 0.57 l -2.50,-2.50 a 0.80 0.80 135.00 0 0 -1.37 0.57 v 8.39 h -14.77 v 4.00 h -16.00 v -4.00 h -7.27 v 4.00 h -5.10 v -4.00 h -4.90 v 4.00 h -5.10 v -4.00 h -7.27 v 4.00 h -16.00 v -4.00 h -7.27 v 4.00 h -5.10 v -4.00 h -4.90 v 4.00 h -5.10 v -4.00 h -7.27 v 4.00 h -16.00 v -4.00 h -7.27 v 4.00 h -5.10 v -4.00 h -4.90 v 4.00 h -5.10 v -4.00 h -7.27 v 4.00 h -16.00 v -4.00 h -7.27 v 4.00 h -5.10 v -4.00 h -4.90 v 4.00 h -5.10 v -4.00 h -7.27 v 4.00 h -16.00 v -4.00 h -7.27 v 4.00 h -5.10 v -4.00 h -4.90 v 4.00 h -5.10 v -4.00 h -7.27 v 4.00 h -16.00 v -4.00 h -14.77 m -0.00, -56.00 v 10.45 a 0.80 0.80 135.00 0 0 1.37 0.57 l 2.50,-2.50 a -0.80 -0.80 135.00 0 1 1.37 0.57 v 9.90 a -0.80 -0.80 135.00 0 1 -1.37 0.57 l -2.50,-2.50 a 0.80 0.80 135.00 0 0 -1.37 0.57 v 7.84 a 0.80 0.80 135.00 0 0 1.37 0.57 l 2.50,-2.50 a -0.80 -0.80 135.00 0 1 1.37 0.57 v 9.90 a -0.80 -0.80 135.00 0 1 -1.37 0.57 l -2.50,-2.50 a 0.80 0.80 135.00 0 0 -1.37 0.57 v 7.84 a 0.80 0.80 135.00 0 0 1.37 0.57 l 2.50,-2.50 a -0.80 -0.80 135.00 0 1 1.37 0.57 v 9.90 a -0.80 -0.80 135.00 0 1 -1.37 0.57 l -2.50,-2.50 a 0.80 0.80 135.00 0 0 -1.37 0.57 v 8.39"/>

</g>
<g fill="none" stroke="red">
<circle cx="42.20" cy="32.06" r="13.10"/>
<circle cx="69.90" cy="32.06" r="13.10"/>
<circle cx="28.35" cy="56.05" r="13.10"/>
<circle cx="56.05" cy="56.05" r="13.10"/>
<circle cx="83.75" cy="56.05" r="13.10"/>
<circle cx="42.20" cy="80.04" r="13.10"/>
<circle cx="69.90" cy="80.04" r="13.10"/>
<circle cx="154.30" cy="32.06" r="13.10"/>
<circle cx="182.00" cy="32.06" r="13.10"/>
<circle cx="140.45" cy="56.05" r="13.10"/>
<circle cx="168.15" cy="56.05" r="13.10"/>
<circle cx="195.85" cy="56.05" r="13.10"/>
<circle cx="154.30" cy="80.04" r="13.10"/>
<circle cx="182.00" cy="80.04" r="13.10"/>
<path d="M 93.94,181.42 l 3.46,2.00 l -2.45,4.24 l -3.46,-2.00 l 2.45,-4.24 m -2.45, 4.24 m -2.55, 4.42 l 3.46,2.00 l -2.45,4.24 l -3.46,-2.00 l 2.45,-4.24 m -2.45, 4.24 m -3.03, 5.25 l 3.46,2.00 a -20.04 -20.04 60.00 0 1 -17.36 10.02 v -4.00 a 16.04 16.04 60.00 0 0 13.89 -8.02 m -13.89, 8.02 m -6.06, 0.00 v 4.00 h -4.90 v -4.00 h 4.90 m -4.90, 0.00 m -5.10, 0.00 v 4.00 h -4.90 v -4.00 h 4.90 m -4.90, 0.00 m -6.06, 0.00 v 4.00 a -20.04 -20.04 60.00 0 1 -17.36 -10.02 l 3.46,-2.00 a 16.04 16.04 60.00 0 0 13.89 8.02 m -13.89, -8.02 m -3.03, -5.25 l -3.46,2.00 l -2.45,-4.24 l 3.46,-2.00 l 2.45,4.24 m -2.45, -4.24 m -2.55, -4.42 l -3.46,2.00 l -2.45,-4.24 l 3.46,-2.00 l 2.45,4.24 m -2.45, -4.24 m -3.03, -5.25 l -3.46,2.00 a -20.04 -20.04 60.00 0 1 -0.00 -20.04 l 3.46,2.00 a 16.04 16.04 60.00 0 0 0.00 16.04 m -0.00, -16.04 m 3.03, -5.25 l -3.46,-2.00 l 2.45,-4.24 l 3.46,2.00 l -2.45,4.24 m 2.45, -4.24 m 2.55, -4.42 l -3.46,-2.00 l 2.45,-4.24 l 3.46,2.00 l -2.45,4.24 m 2.45, -4.24 m 3.03, -5.25 l -3.46,-2.00 a -20.04 -20.04 60.00 0 1 17.36 -10.02 v 4.00 a 16.04 16.04 60.00 0 0 -13.89 8.02 m 13.89, -8.02 m 6.06, -0.00 v -4.00 h 4.90 v 4.00 h -4.90 m 4.90, -0.00 m 5.10, -0.00 v -4.00 h 4.90 v 4.00 h -4.90 m 4.90, -0.00 m 6.06, -0.00 v -4.00 a -20.04 -20.04 60.00 0 1 17.36 10.02 l -3.46,2.00 a 16.04 16.04 60.00 0 0 -13.89 -8.02 m 13.89, 8.02 m 13.51, 23.40 l 3.46,-2.00 a -20.04 -20.04 60.00 0 1 0.00 20.04 l -3.46,-2.00 a 16.04 16.04 60.00 0 0 -0.00 -16.04"/>
<path d="M 206.04,181.42 l 3.46,2.00 l -2.45,4.24 l -3.46,-2.00 l 2.45,-4.24 m -2.45, 4.24 m -2.55, 4.42 l 3.46,2.00 l -2.45,4.24 l -3.46,-2.00 l 2.45,-4.24 m -2.45, 4.24 m -3.03, 5.25 l 3.46,2.00 a -20.04 -20.04 60.00 0 1 -17.36 10.02 v -4.00 a 16.04 16.04 60.00 0 0 13.89 -8.02 m -13.89, 8.02 m -6.06, 0.00 v 4.00 h -4.90 v -4.00 h 4.90 m -4.90, 0.00 m -5.10, 0.00 v 4.00 h -4.90 v -4.00 h 4.90 m -4.90, 0.00 m -6.06, 0.00 v 4.00 a -20.04 -20.04 60.00 0 1 -17.36 -10.02 l 3.46,-2.00 a 16.04 16.04 60.00 0 0 13.89 8.02 m -13.89, -8.02 m -3.03, -5.25 l -3.46,2.00 l -2.45,-4.24 l 3.46,-2.00 l 2.45,4.24 m -2.45, -4.24 m -2.55, -4.42 l -3.46,2.00 l -2.45,-4.24 l 3.46,-2.00 l 2.45,4.24 m -2.45, -4.24 m -3.03, -5.25 l -3.46,2.00 a -20.04 -20.04 60.00 0 1 -0.00 -20.04 l 3.46,2.00 a 16.04 16.04 60.00 0 0 0.00 16.04 m 0.00, -16.04 m 3.03, -5.25 l -3.46,-2.00 l 2.45,-4.24 l 3.46,2.00 l -2.45,4.24 m 2.45, -4.24 m 2.55, -4.42 l -3.46,-2.00 l 2.45,-4.24 l 3.46,2.00 l -2.45,4.24 m 2.45, -4.24 m 3.03, -5.25 l -3.46,-2.00 a -20.04 -20.04 60.00 0 1 17.36 -10.02 v 4.00 a 16.04 16.04 60.00 0 0 -13.89 8.02 m 13.89, -8.02 m 6.06, -0.00 v -4.00 h 4.90 v 4.00 h -4.90 m 4.90, -0.00 m 5.10, -0.00 v -4.00 h 4.90 v 4.00 h -4.90 m 4.90, -0.00 m 6.06, -0.00 v -4.00 a -20.04 -20.04 60.00 0 1 17.36 10.02 l -3.46,2.00 a 16.04 16.04 60.00 0 0 -13.89 -8.02 m 13.89, 8.02 m 13.51, 23.40 l 3.46,-2.00 a -20.04 -20.04 60.00 0 1 0.00 20.04 l -3.46,-2.00 a 16.04 16.04 60.00 0 0 0.00 -16.04"/>
<path d="M 187.83,168.15 a 19.68 19.68 355.00 1 0 -0.07 1.72 a 19.68 19.68 5.00 0 0 0.07 -1.72 M 168.15, 168.15"/>
<path d="M 318.90,56.05 l -9.66,16.73 a 19.32 19.32 120.00 0 0 -28.99 16.73 h -19.32 l -9.66,-16.73 a 19.32 19.32 120.00 0 0 -0.00 -33.47 l 9.66,-16.73 h 19.32 a 19.32 19.32 120.00 0 0 28.99 16.73 l 9.66,16.73"/>
<path d="M 18.93,224.20 h 1.00 v 20.00 m 0.00, 4.00 v 36.00 m 0.00, 4.00 m 2.00, 0.00 v -20.00 m -0.00, -4.00 v -36.00 m -0.00, -4.00 m 2.00, 0.00 v 20.00 m 0.00, 4.00 v 36.00 m 0.00, 4.00 m 2.00, 0.00 v -20.00 m -0.00, -4.00 v -36.00 m -0.00, -4.00 m 2.00, 0.00 v 20.00 m 0.00, 4.00 v 36.00 m 0.00, 4.00 m 2.00, 0.00 v -20.00 m -0.00, -4.00 v -36.00 m -0.00, -4.00 m 2.00, 0.00 v 20.00 m 0.00, 4.00 v 36.00 m 0.00, 4.00 m 2.00, 0.00 v -20.00 m -0.00, -4.00 v -36.00 m -0.00, -4.00 m 2.00, 0.00"/>
<path d="M 64.58,224.20 h 1.00 v 20.00 m 0.00, 4.00 v 36.00 m 0.00, 4.00 m 2.00, 0.00 v -20.00 m -0.00, -4.00 v -36.00 m -0.00, -4.00 m 2.00, 0.00 v 20.00 m 0.00, 4.00 v 36.00 m 0.00, 4.00 m 2.00, 0.00 v -20.00 m -0.00, -4.00 v -36.00 m -0.00, -4.00 m 2.00, 0.00 v 20.00 m 0.00, 4.00 v 36.00 m 0.00, 4.00 m 2.00, 0.00 v -20.00 m -0.00, -4.00 v -36.00 m -0.00, -4.00 m 2.00, 0.00 v 20.00 m 0.00, 4.00 v 36.00 m 0.00, 4.00 m 2.00, 0.00 v -20.00 m -0.00, -4.00 v -36.00 m -0.00, -4.00 m 2.00, 0.00"/>
<path d="M 110.23,224.20 h 1.00 v 20.00 m 0.00, 4.00 v 36.00 m 0.00, 4.00 m 2.00, 0.00 v -20.00 m -0.00, -4.00 v -36.00 m -0.00, -4.00 m 2.00, 0.00 v 20.00 m 0.00, 4.00 v 36.00 m 0.00, 4.00 m 2.00, 0.00 v -20.00 m -0.00, -4.00 v -36.00 m -0.00, -4.00 m 2.00, 0.00 v 20.00 m 0.00, 4.00 v 36.00 m 0.00, 4.00 m 2.00, 0.00 v -20.00 m -0.00, -4.00 v -36.00 m -0.00, -4.00 m 2.00, 0.00 v 20.00 m 0.00, 4.00 v 36.00 m 0.00, 4.00 m 2.00, 0.00 v -20.00 m -0.00, -4.00 v -36.00 m -0.00, -4.00 m 2.00, 0.00"/>
<path d="M 155.88,224.20 h 1.00 v 20.00 m 0.00, 4.00 v 36.00 m 0.00, 4.00 m 2.00, 0.00 v -20.00 m -0.00, -4.00 v -36.00 m -0.00, -4.00 m 2.00, 0.00 v 20.00 m 0.00, 4.00 v 36.00 m 0.00, 4.00 m 2.00, 0.00 v -20.00 m -0.00, -4.00 v -36.00 m -0.00, -4.00 m 2.00, 0.00 v 20.00 m 0.00, 4.00 v 36.00 m 0.00, 4.00 m 2.00, 0.00 v -20.00 m -0.00, -4.00 v -36.00 m -0.00, -4.00 m 2.00, 0.00 v 20.00 m 0.00, 4.00 v 36.00 m 0.00, 4.00 m 2.00, 0.00 v -20.00 m -0.00, -4.00 v -36.00 m -0.00, -4.00 m 2.00, 0.00"/>
<path d="M 201.53,224.20 h 1.00 v 20.00 m 0.00, 4.00 v 36.00 m 0.00, 4.00 m 2.00, 0.00 v -20.00 m -0.00, -4.00 v -36.00 m -0.00, -4.00 m 2.00, 0.00 v 20.00 m 0.00, 4.00 v 36.00 m 0.00, 4.00 m 2.00, 0.00 v -20.00 m -0.00, -4.00 v -36.00 m -0.00, -4.00 m 2.00, 0.00 v 20.00 m 0.00, 4.00 v 36.00 m 0.00, 4.00 m 2.00, 0.00 v -20.00 m -0.00, -4.00 v -36.00 m -0.00, -4.00 m 2.00, 0.00 v 20.00 m 0.00, 4.00 v 36.00 m 0.00, 4.00 m 2.00, 0.00 v -20.00 m -0.00, -4.00 v -36.00 m -0.00, -4.00 m 2.00, 0.00"/>
<path d="M 247.18,224.20 h 1.00 v 20.00 m 0.00, 4.00 v 36.00 m 0.00, 4.00 m 2.00, 0.00 v -20.00 m -0.00, -4.00 v -36.00 m -0.00, -4.00 m 2.00, 0.00 v 20.00 m 0.00, 4.00 v 36.00 m 0.00, 4.00 m 2.00, 0.00 v -20.00 m -0.00, -4.00 v -36.00 m -0.00, -4.00 m 2.00, 0.00 v 20.00 m 0.00, 4.00 v 36.00 m 0.00, 4.00 m 2.00, 0.00 v -20.00 m -0.00, -4.00 v -36.00 m -0.00, -4.00 m 2.00, 0.00 v 20.00 m 0.00, 4.00 v 36.00 m 0.00, 4.00 m 2.00, 0.00 v -20.00 m -0.00, -4.00 v -36.00 m -0.00, -4.00 m 2.00, 0.00"/>
<rect x="47.25" y="252.70" width="4.90" height="3.90"/>
<rect x="92.80" y="252.70" width="4.90" height="3.90"/>
<rect x="138.35" y="252.70" width="4.90" height="3.90"/>
<rect x="183.90" y="252.70" width="4.90" height="3.90"/>
<rect x="229.45" y="252.70" width="4.90" height="3.90"/>
<rect x="47.25" y="267.70" width="4.90" height="3.90"/>
<rect x="92.80" y="267.70" width="4.90" height="3.90"/>
<rect x="138.35" y="267.70" width="4.90" height="3.90"/>
<rect x="183.90" y="267.70" width="4.90" height="3.90"/>
<rect x="229.45" y="267.70" width="4.90" height="3.90"/>

</g>
<g fill="none" stroke="blue">
<path d="M 313.72,187.47 l -16.73,9.66 a 19.32 19.32 120.00 0 0 -33.47 0.00 l -16.73,-9.66 v -19.32 a 19.32 19.32 120.00 0 0 16.73 -28.99 l 16.73,-9.66 l 16.73,9.66 a 19.32 19.32 120.00 0 0 16.73 28.99 v 19.32"/>
<path d="M 299.93,168.15 a 19.68 19.68 355.00 1 0 -0.07 1.72 a 19.68 19.68 5.00 0 0 0.07 -1.72 M 280.25, 168.15"/>

</g>
</svg>
