<svg viewBox="0 0 315.00 276.50" width="315.00mm" height="276.50mm" stroke-width="0.1" xmlns="http://www.w3.org/2000/svg">
<g fill="none" stroke="black">
<path d="M 93.03,58.52 l -6.25,10.83 l 2.60,1.50 l -2.55,4.42 l -2.60,-1.50 l -6.25,10.83 a -12.03 -12.03 60.00 0 1 -10.42 6.02 h -12.50 v 3.00 h -5.10 v -3.00 h -12.50 a -12.03 -12.03 60.00 0 1 -10.42 -6.02 l -6.25,-10.83 l -2.60,1.50 l -2.55,-4.42 l 2.60,-1.50 l -6.25,-10.83 a -12.03 -12.03 60.00 0 1 -0.00 -12.03 l 6.25,-10.83 l -2.60,-1.50 l 2.55,-4.42 l 2.60,1.50 l 6.25,-10.83 a -12.03 -12.03 60.00 0 1 10.42 -6.02 h 12.50 v -3.00 h 5.10 v 3.00 h 12.50 a -12.03 -12.03 60.00 0 1 10.42 6.02 l 15.05,26.07 a -12.03 -12.03 60.00 0 1 0.00 12.03"/>
<path d="M 198.03,58.52 l -6.25,10.83 l 2.60,1.50 l -2.55,4.42 l -2.60,-1.50 l -6.25,10.83 a -12.03 -12.03 60.00 0 1 -10.42 6.02 h -12.50 v 3.00 h -5.10 v -3.00 h -12.50 a -12.03 -12.03 60.00 0 1 -10.42 -6.02 l -6.25,-10.83 l -2.60,1.50 l -2.55,-4.42 l 2.60,-1.50 l -6.25,-10.83 a -12.03 -12.03 60.00 0 1 0.00 -12.03 l 6.25,-10.83 l -2.60,-1.50 l 2.55,-4.42 l 2.60,1.50 l 6.25,-10.83 a -12.03 -12.03 60.00 0 1 10.42 -6.02 h 12.50 v -3.00 h 5.10 v 3.00 h 12.50 a -12.03 -12.03 60.00 0 1 10.42 6.02 l 15.05,26.07 a -12.03 -12.03 60.00 0 1 0.00 12.03"/>
<path d="M 102.50,157.50 l -25.00,43.30 h -50.00 l -25.00,-43.30 l 25.00,-43.30 h 50.00 l 25.00,43.30"/>
<path d="M 207.50,157.50 l -25.00,43.30 h -50.00 l -25.00,-43.30 l 25.00,-43.30 h 50.00 l 25.00,43.30"/>
<path d="M 198.50,157.50 l -20.50,35.51 h -41.00 l -20.50,-35.51 l 20.50,-35.51 h 41.00 l 20.50,35.51"/>
<path d="M 312.50,157.50 l -25.00,43.30 h -50.00 l -25.00,-43.30 l 25.00,-43.30 h 50.00 l 25.00,43.30"/>
<path d="M 4.00,213.00 h 16.00 v -3.00 h 12.00 v 3.00 h 3.50 v -3.00 h 5.10 v 3.00 h 4.90 v -3.00 h 5.10 v 3.00 h 4.90 v -3.00 h 5.10 v 3.00 h 3.50 v -3.00 h 12.00 v 3.00 h 3.50 v -3.00 h 5.10 v 3.00 h 4.90 v -3.00 h 5.10 v 3.00 h 4.90 v -3.00 h 5.10 v 3.00 h 3.50 v -3.00 h 12.00 v 3.00 h 3.50 v -3.00 h 5.10 v 3.00 h 4.90 v -3.00 h 5.10 v 3.00 h 4.90 v -3.00 h 5.10 v 3.00 h 3.50 v -3.00 h 12.00 v 3.00 h 3.50 v -3.00 h 5.10 v 3.00 h 4.90 v -3.00 h 5.10 v 3.00 h 4.90 v -3.00 h 5.10 v 3.00 h 3.50 v -3.00 h 12.00 v 3.00 h 3.50 v -3.00 h 5.10 v 3.00 h 4.90 v -3.00 h 5.10 v 3.00 h 4.90 v -3.00 h 5.10 v 3.00 h 3.50 v -3.00 h 12.00 v 3.00 h 16.00 v 10.20 a 0.80 0.80 135.00 0 0 1.37 0.57 l 2.50,-2.50 a -0.80 -0.80 135.00 0 1 1.37 0.57 v 9.90 a -0.80 -0.80 135.00 0 1 -1.37 0.57 l -2.50,-2.50 a 0.80 0.80 135.00 0 0 -1.37 0.57 v 7.84 a 0.80 0.80 135.00 0 0 1.37 0.57 l 2.50,-2.50 a -0.80 -0.80 135.00 0 1 1.37 0.57 v 9.90 a -0.80 -0.80 135.00 0 1 -1.37 0.57 l -2.50,-2.50 a 0.80 0.80 135.00 0 0 -1.37 0.57 v 7.84 a 0.80 0.80 135.00 0 0 1.37 0.57 l 2.50,-2.50 a -0.80 -0.80 135.00 0 1 1.37 0.57 v 9.90 a -0.80 -0.80 135.00 0 1 -1.37 0.57 l -2.50,-2.50 a 0.80 0.80 135.00 0 0 -1.37 0.57 v 8.14 h -16.00 v 3.00 h -12.00 v -3.00 h -3.50 v 3.00 h -5.10 v -3.00 h -4.90 v 3.00 h -5.10 v -3.00 h -4.90 v 3.00 h -5.10 v -3.00 h -3.50 v 3.00 h -12.00 v -3.00 h -3.50 v 3.00 h -5.10 v -3.00 h -4.90 v 3.00 h -5.10 v -3.00 h -4.90 v 3.00 h -5.10 v -3.00 h -3.50 v 3.00 h -12.00 v -3.00 h -3.50 v 3.00 h -5.10 v -3.00 h -4.90 v 3.00 h -5.10 v -3.00 h -4.90 v 3.00 h -5.10 v -3.00 h -3.50 v 3.00 h -12.00 v -3.00 h -3.50 v 3.00 h -5.10 v -3.00 h -4.90 v 3.00 h -5.10 v -3.00 h -4.90 v 3.00 h -5.10 v -3.00 h -3.50 v 3.00 h -12.00 v -3.00 h -3.50 v 3.00 h -5.10 v -3.00 h -4.90 v 3.00 h -5.10 v -3.00 h -4.90 v 3.00 h -5.10 v -3.00 h -3.50 v 3.00 h -12.00 v -3.00 h -16.00 m -0.00, -55.50 v 10.20 a 0.80 0.80 135.00 0 0 1.37 0.57 l 2.50,-2.50 a -0.80 -0.80 135.00 0 1 1.37 0.57 v 9.90 a -0.80 -0.80 135.00 0 1 -1.37 0.57 l -2.50,-2.50 a 0.80 0.80 135.00 0 0 -1.37 0.57 v 7.84 a 0.80 0.80 135.00 0 0 1.37 0.57 l 2.50,-2.50 a -0.80 -0.80 135.00 0 1 1.37 0.57 v 9.90 a -0.80 -0.80 135.00 0 1 -1.37 0.57 l -2.50,-2.50 a 0.80 0.80 135.00 0 0 -1.37 0.57 v 7.84 a 0.80 0.80 135.00 0 0 1.37 0.57 l 2.50,-2.50 a -0.80 -0.80 135.00 0 1 1.37 0.57 v 9.90 a -0.80 -0.80 135.00 0 1 -1.37 0.57 l -2.50,-2.50 a 0.80 0.80 135.00 0 0 -1.37 0.57 v 8.14"/>

</g>
<g fill="none" stroke="red">
<circle cx="36.50" cy="24.79" r="7.25"/>
<circle cx="52.50" cy="24.79" r="7.25"/>
<circle cx="68.50" cy="24.79" r="7.25"/>
<circle cx="28.50" cy="38.64" r="7.25"/>
<circle cx="44.50" cy="38.64" r="7.25"/>
<circle cx="60.50" cy="38.64" r="7.25"/>
<circle cx="76.50" cy="38.64" r="7.25"/>
<circle cx="20.50" cy="52.50" r="7.25"/>
<circle cx="36.50" cy="52.50" r="7.25"/>
<circle cx="52.50" cy="52.50" r="7.25"/>
<circle cx="68.50" cy="52.50" r="7.25"/>
<circle cx="84.50" cy="52.50" r="7.25"/>
<circle cx="28.50" cy="66.36" r="7.25"/>
<circle cx="44.50" cy="66.36" r="7.25"/>
<circle cx="60.50" cy="66.36" r="7.25"/>
<circle cx="76.50" cy="66.36" r="7.25"/>
<circle cx="36.50" cy="80.21" r="7.25"/>
<circle cx="52.50" cy="80.21" r="7.25"/>
<circle cx="68.50" cy="80.21" r="7.25"/>
<circle cx="141.50" cy="24.79" r="7.25"/>
<circle cx="157.50" cy="24.79" r="7.25"/>
<circle cx="173.50" cy="24.79" r="7.25"/>
<circle cx="133.50" cy="38.64" r="7.25"/>
<circle cx="149.50" cy="38.64" r="7.25"/>
<circle cx="165.50" cy="38.64" r="7.25"/>
<circle cx="181.50" cy="38.64" r="7.25"/>
<circle cx="125.50" cy="52.50" r="7.25"/>
<circle cx="141.50" cy="52.50" r="7.25"/>
<circle cx="157.50" cy="52.50" r="7.25"/>
<circle cx="173.50" cy="52.50" r="7.25"/>
<circle cx="189.50" cy="52.50" r="7.25"/>
<circle cx="133.50" cy="66.36" r="7.25"/>
<circle cx="149.50" cy="66.36" r="7.25"/>
<circle cx="165.50" cy="66.36" r="7.25"/>
<circle cx="181.50" cy="66.36" r="7.25"/>
<circle cx="141.50" cy="80.21" r="7.25"/>
<circle cx="157.50" cy="80.21" r="7.25"/>
<circle cx="173.50" cy="80.21" r="7.25"/>
<path d="M 91.72,165.77 l 2.60,1.50 l -2.45,4.24 l -2.60,-1.50 l 2.45,-4.24 m -2.45, 4.24 m -2.55, 4.42 l 2.60,1.50 l -2.45,4.24 l -2.60,-1.50 l 2.45,-4.24 m -2.45, 4.24 m -2.55, 4.42 l 2.60,1.50 l -2.45,4.24 l -2.60,-1.50 l 2.45,-4.24 m -2.45, 4.24 m -1.30, 2.25 l 2.60,1.50 a -15.03 -15.03 60.00 0 1 -13.02 7.52 v -3.00 a 12.03 12.03 60.00 0 0 10.42 -6.02 m -10.42, 6.02 m -2.60, 0.00 v 3.00 h -4.90 v -3.00 h 4.90 m -4.90, 0.00 m -5.10, 0.00 v 3.00 h -4.90 v -3.00 h 4.90 m -4.90, 0.00 m -5.10, 0.00 v 3.00 h -4.90 v -3.00 h 4.90 m -4.90, 0.00 m -2.60, 0.00 v 3.00 a -15.03 -15.03 60.00 0 1 -13.02 -7.52 l 2.60,-1.50 a 12.03 12.03 60.00 0 0 10.42 6.02 m -10.42, -6.02 m -1.30, -2.25 l -2.60,1.50 l -2.45,-4.24 l 2.60,-1.50 l 2.45,4.24 m -2.45, -4.24 m -2.55, -4.42 l -2.60,1.50 l -2.45,-4.24 l 2.60,-1.50 l 2.45,4.24 m -2.45, -4.24 m -2.55, -4.42 l -2.60,1.50 l -2.45,-4.24 l 2.60,-1.50 l 2.45,4.24 m -2.45, -4.24 m -1.30, -2.25 l -2.60,1.50 a -15.03 -15.03 60.00 0 1 -0.00 -15.03 l 2.60,1.50 a 12.03 12.03 60.00 0 0 0.00 12.03 m -0.00, -12.03 m 1.30, -2.25 l -2.60,-1.50 l 2.45,-4.24 l 2.60,1.50 l -2.45,4.24 m 2.45, -4.24 m 2.55, -4.42 l -2.60,-1.50 l 2.45,-4.24 l 2.60,1.50 l -2.45,4.24 m 2.45, -4.24 m 2.55, -4.42 l -2.60,-1.50 l 2.45,-4.24 l 2.60,1.50 l -2.45,4.24 m 2.45, -4.24 m 1.30, -2.25 l -2.60,-1.50 a -15.03 -15.03 60.00 0 1 13.02 -7.52 v 3.00 a 12.03 12.03 60.00 0 0 -10.42 6.02 m 10.42, -6.02 m 2.60, -0.00 v -3.00 h 4.90 v 3.00 h -4.90 m 4.90, -0.00 m 5.10, -0.00 v -3.00 h 4.90 v 3.00 h -4.90 m 4.90, -0.00 m 5.10, -0.00 v -3.00 h 4.90 v 3.00 h -4.90 m 4.90, -0.00 m 2.60, -0.00 v -3.00 a -15.03 -15.03 60.00 0 1 13.02 7.52 l -2.60,1.50 a 12.03 12.03 60.00 0 0 -10.42 -6.02 m 10.42, 6.02 m 15.05, 26.07 l 2.60,-1.50 a -15.03 -15.03 60.00 0 1 0.00 15.03 l -2.60,-1.50 a 12.03 12.03 60.00 0 0 -0.00 -12.03"/>
<path d="M 196.72,165.77 l 2.60,1.50 l -2.45,4.24 l -2.60,-1.50 l 2.45,-4.24 m -2.45, 4.24 m -2.55, 4.42 l 2.60,1.50 l -2.45,4.24 l -2.60,-1.50 l 2.45,-4.24 m -2.45, 4.24 m -2.55, 4.42 l 2.60,1.50 l -2.45,4.24 l -2.60,-1.50 l 2.45,-4.24 m -2.45, 4.24 m -1.30, 2.25 l 2.60,1.50 a -15.03 -15.03 60.00 0 1 -13.02 7.52 v -3.00 a 12.03 12.03 60.00 0 0 10.42 -6.02 m -10.42, 6.02 m -2.60, 0.00 v 3.00 h -4.90 v -3.00 h 4.90 m -4.90, 0.00 m -5.10, 0.00 v 3.00 h -4.90 v -3.00 h 4.90 m -4.90, 0.00 m -5.10, 0.00 v 3.00 h -4.90 v -3.00 h 4.90 m -4.90, 0.00 m -2.60, 0.00 v 3.00 a -15.03 -15.03 60.00 0 1 -13.02 -7.52 l 2.60,-1.50 a 12.03 12.03 60.00 0 0 10.42 6.02 m -10.42, -6.02 m -1.30, -2.25 l -2.60,1.50 l -2.45,-4.24 l 2.60,-1.50 l 2.45,4.24 m -2.45, -4.24 m -2.55, -4.42 l -2.60,1.50 l -2.45,-4.24 l 2.60,-1.50 l 2.45,4.24 m -2.45, -4.24 m -2.55, -4.42 l -2.60,1.50 l -2.45,-4.24 l 2.60,-1.50 l 2.45,4.24 m -2.45, -4.24 m -1.30, -2.25 l -2.60,1.50 a -15.03 -15.03 60.00 0 1 0.00 -15.03 l 2.60,1.50 a 12.03 12.03 60.00 0 0 0.00 12.03 m 0.00, -12.03 m 1.30, -2.25 l -2.60,-1.50 l 2.45,-4.24 l 2.60,1.50 l -2.45,4.24 m 2.45, -4.24 m 2.55, -4.42 l -2.60,-1.50 l 2.45,-4.24 l 2.60,1.50 l -2.45,4.24 m 2.45, -4.24 m 2.55, -4.42 l -2.60,-1.50 l 2.45,-4.24 l 2.60,1.50 l -2.45,4.24 m 2.45, -4.24 m 1.30, -2.25 l -2.60,-1.50 a -15.03 -15.03 60.00 0 1 13.02 -7.52 v 3.00 a 12.03 12.03 60.00 0 0 -10.42 6.02 m 10.42, -6.02 m 2.60, -0.00 v -3.00 h 4.90 v 3.00 h -4.90 m 4.90, -0.00 m 5.10, -0.00 v -3.00 h 4.90 v 3.00 h -4.90 m 4.90, -0.00 m 5.10, -0.00 v -3.00 h 4.90 v 3.00 h -4.90 m 4.90, -0.00 m 2.60, -0.00 v -3.00 a -15.03 -15.03 60.00 0 1 13.02 7.52 l -2.60,1.50 a 12.03 12.03 60.00 0 0 -10.42 -6.02 m 10.42, 6.02 m 15.05, 26.07 l 2.60,-1.50 a -15.03 -15.03 60.00 0 1 0.00 15.03 l -2.60,-1.50 a 12.03 12.03 60.00 0 0 0.00 -12.03"/>
<path d="M 175.00,157.50 a 17.50 17.50 355.00 1 0 -0.07 1.53 a 17.50 17.50 5.00 0 0 0.07 -1.53 M 157.50, 157.50"/>
<path d="M 299.81,52.50 l -9.33,16.15 a 18.65 18.65 120.00 0 0 -27.98 16.15 h -18.65 l -9.33,-16.15 a 18.65 18.65 120.00 0 0 -0.00 -32.31 l 9.33,-16.15 h 18.65 a 18.65 18.65 120.00 0 0 27.98 16.15 l 9.33,16.15"/>
<path d="M 20.00,210.00 h 0.75 v 19.50 m 0.00, 3.00 v 36.00 m 0.00, 3.00 m 1.50, 0.00 v -19.50 m -0.00, -3.00 v -36.00 m -0.00, -3.00 m 1.50, 0.00 v 19.50 m 0.00, 3.00 v 36.00 m 0.00, 3.00 m 1.50, 0.00 v -19.50 m -0.00, -3.00 v -36.00 m -0.00, -3.00 m 1.50, 0.00 v 19.50 m 0.00, 3.00 v 36.00 m 0.00, 3.00 m 1.50, 0.00 v -19.50 m -0.00, -3.00 v -36.00 m -0.00, -3.00 m 1.50, 0.00 v 19.50 m 0.00, 3.00 v 36.00 m 0.00, 3.00 m 1.50, 0.00 v -19.50 m -0.00, -3.00 v -36.00 m -0.00, -3.00 m 1.50, 0.00"/>
<path d="M 64.10,210.00 h 0.75 v 19.50 m 0.00, 3.00 v 36.00 m 0.00, 3.00 m 1.50, 0.00 v -19.50 m -0.00, -3.00 v -36.00 m -0.00, -3.00 m 1.50, 0.00 v 19.50 m 0.00, 3.00 v 36.00 m 0.00, 3.00 m 1.50, 0.00 v -19.50 m -0.00, -3.00 v -36.00 m -0.00, -3.00 m 1.50, 0.00 v 19.50 m 0.00, 3.00 v 36.00 m 0.00, 3.00 m 1.50, 0.00 v -19.50 m -0.00, -3.00 v -36.00 m -0.00, -3.00 m 1.50, 0.00 v 19.50 m 0.00, 3.00 v 36.00 m 0.00, 3.00 m 1.50, 0.00 v -19.50 m -0.00, -3.00 v -36.00 m -0.00, -3.00 m 1.50, 0.00"/>
<path d="M 108.20,210.00 h 0.75 v 19.50 m 0.00, 3.00 v 36.00 m 0.00, 3.00 m 1.50, 0.00 v -19.50 m -0.00, -3.00 v -36.00 m -0.00, -3.00 m 1.50, 0.00 v 19.50 m 0.00, 3.00 v 36.00 m 0.00, 3.00 m 1.50, 0.00 v -19.50 m -0.00, -3.00 v -36.00 m -0.00, -3.00 m 1.50, 0.00 v 19.50 m 0.00, 3.00 v 36.00 m 0.00, 3.00 m 1.50, 0.00 v -19.50 m -0.00, -3.00 v -36.00 m -0.00, -3.00 m 1.50, 0.00 v 19.50 m 0.00, 3.00 v 36.00 m 0.00, 3.00 m 1.50, 0.00 v -19.50 m -0.00, -3.00 v -36.00 m -0.00, -3.00 m 1.50, 0.00"/>
<path d="M 152.30,210.00 h 0.75 v 19.50 m 0.00, 3.00 v 36.00 m 0.00, 3.00 m 1.50, 0.00 v -19.50 m -0.00, -3.00 v -36.00 m -0.00, -3.00 m 1.50, 0.00 v 19.50 m 0.00, 3.00 v 36.00 m 0.00, 3.00 m 1.50, 0.00 v -19.50 m -0.00, -3.00 v -36.00 m -0.00, -3.00 m 1.50, 0.00 v 19.50 m 0.00, 3.00 v 36.00 m 0.00, 3.00 m 1.50, 0.00 v -19.50 m -0.00, -3.00 v -36.00 m -0.00, -3.00 m 1.50, 0.00 v 19.50 m 0.00, 3.00 v 36.00 m 0.00, 3.00 m 1.50, 0.00 v -19.50 m -0.00, -3.00 v -36.00 m -0.00, -3.00 m 1.50, 0.00"/>
<path d="M 196.40,210.00 h 0.75 v 19.50 m 0.00, 3.00 v 36.00 m 0.00, 3.00 m 1.50, 0.00 v -19.50 m -0.00, -3.00 v -36.00 m -0.00, -3.00 m 1.50, 0.00 v 19.50 m 0.00, 3.00 v 36.00 m 0.00, 3.00 m 1.50, 0.00 v -19.50 m -0.00, -3.00 v -36.00 m -0.00, -3.00 m 1.50, 0.00 v 19.50 m 0.00, 3.00 v 36.00 m 0.00, 3.00 m 1.50, 0.00 v -19.50 m -0.00, -3.00 v -36.00 m -0.00, -3.00 m 1.50, 0.00 v 19.50 m 0.00, 3.00 v 36.00 m 0.00, 3.00 m 1.50, 0.00 v -19.50 m -0.00, -3.00 v -36.00 m -0.00, -3.00 m 1.50, 0.00"/>
<path d="M 240.50,210.00 h 0.75 v 19.50 m 0.00, 3.00 v 36.00 m 0.00, 3.00 m 1.50, 0.00 v -19.50 m -0.00, -3.00 v -36.00 m -0.00, -3.00 m 1.50, 0.00 v 19.50 m 0.00, 3.00 v 36.00 m 0.00, 3.00 m 1.50, 0.00 v -19.50 m -0.00, -3.00 v -36.00 m -0.00, -3.00 m 1.50, 0.00 v 19.50 m 0.00, 3.00 v 36.00 m 0.00, 3.00 m 1.50, 0.00 v -19.50 m -0.00, -3.00 v -36.00 m -0.00, -3.00 m 1.50, 0.00 v 19.50 m 0.00, 3.00 v 36.00 m 0.00, 3.00 m 1.50, 0.00 v -19.50 m -0.00, -3.00 v -36.00 m -0.00, -3.00 m 1.50, 0.00"/>
<rect x="45.55" y="237.72" width="4.90" height="2.90"/>
<rect x="89.55" y="237.72" width="4.90" height="2.90"/>
<rect x="133.55" y="237.72" width="4.90" height="2.90"/>
<rect x="177.55" y="237.72" width="4.90" height="2.90"/>
<rect x="221.55" y="237.72" width="4.90" height="2.90"/>
<rect x="45.55" y="252.72" width="4.90" height="2.90"/>
<rect x="89.55" y="252.72" width="4.90" height="2.90"/>
<rect x="133.55" y="252.72" width="4.90" height="2.90"/>
<rect x="177.55" y="252.72" width="4.90" height="2.90"/>
<rect x="221.55" y="252.72" width="4.90" height="2.90"/>

</g>
<g fill="none" stroke="blue">
<path d="M 294.81,176.15 l -16.15,9.33 a 18.65 18.65 120.00 0 0 -32.31 0.00 l -16.15,-9.33 v -18.65 a 18.65 18.65 120.00 0 0 16.15 -27.98 l 16.15,-9.33 l 16.15,9.33 a 18.65 18.65 120.00 0 0 16.15 27.98 v 18.65"/>
<path d="M 280.00,157.50 a 17.50 17.50 355.00 1 0 -0.07 1.53 a 17.50 17.50 5.00 0 0 0.07 -1.53 M 262.50, 157.50"/>

</g>
</svg>
